<?xml version="1.0" encoding="UTF-8"?><svg xmlns="http://www.w3.org/2000/svg" viewBox="0 0 35.95 35.14"><defs><style>.cls-1{stroke-width:3px;}.cls-1,.cls-2,.cls-3{stroke-miterlimit:10;}.cls-1,.cls-3{fill:none;stroke:#333;}.cls-2{fill:#333;stroke:#1a1a1a;stroke-width:.5px;}.cls-3{stroke-width:2px;}</style></defs><g id="Layer_2_copy"><path class="cls-1" d="m25.32,22.95c-2.41-1.55-5.28-2.45-8.36-2.45-8.17,0-14.87,6.33-15.46,14.35"/><circle class="cls-1" cx="16.95" cy="11" r="9.5"/></g><g id="Layer_3"><rect class="cls-3" x="23.09" y="26.51" width="11.87" height="7.63" rx="1" ry="1"/><path class="cls-3" d="m26.78,20.21h4.48c1.1,0,2,.9,2,2v3.3c0,.55-.45,1-1,1h-6.48c-.55,0-1-.45-1-1v-3.3c0-1.1.9-2,2-2Z"/><path class="cls-2" d="m29.96,31.57s0-.02,0-.02l-.48-.96c.23-.15.38-.4.38-.69,0-.47-.38-.85-.85-.85s-.85.38-.85.85c0,.29.16.54.38.69l-.48.96s0,.02,0,.02c0,0,0,.01,0,.02,0,0,0,.01,0,.02,0,.01,0,.02.01.03,0,.01.01.02.03.03,0,0,0,0,.01.01.01,0,.03.01.05.01h1.7s.03,0,.05-.01c0,0,0,0,.01-.01.01,0,.02-.02.03-.03,0-.01.01-.02.01-.03,0,0,0-.01,0-.02,0,0,0-.02,0-.02Z"/></g></svg>